<?xml version="1.0" standalone="no"?>
<!DOCTYPE svg PUBLIC "-//W3C//DTD SVG 20010904//EN"
 "http://www.w3.org/TR/2001/REC-SVG-20010904/DTD/svg10.dtd">
<svg version="1.0" xmlns="http://www.w3.org/2000/svg"
 width="1067.000000pt" height="1067.000000pt" viewBox="0 0 1067.000000 1067.000000"
 preserveAspectRatio="xMidYMid meet">
<metadata>
Created by potrace 1.11, written by Peter Selinger 2001-2013
</metadata>
<g transform="translate(0.000000,1067.000000) scale(0.100000,-0.100000)"
fill="#000000" stroke="none">
<path d="M5257 10464 c-1 -1 -73 -4 -161 -8 -87 -4 -161 -8 -165 -10 -3 -2
-49 -7 -101 -11 -52 -3 -97 -8 -100 -10 -3 -1 -30 -6 -60 -9 -50 -6 -189 -27
-265 -41 -323 -58 -793 -203 -1063 -326 -35 -16 -66 -29 -68 -29 -9 0 -327
-158 -394 -196 -53 -30 -209 -122 -256 -152 -360 -224 -826 -622 -1094 -932
-40 -47 -76 -87 -80 -90 -6 -5 -151 -188 -187 -236 -86 -116 -140 -195 -268
-394 -50 -76 -146 -253 -219 -399 -263 -525 -446 -1142 -501 -1696 -4 -38 -9
-78 -11 -88 -24 -134 -24 -900 1 -997 2 -8 6 -45 10 -82 3 -37 8 -77 10 -90 2
-13 9 -59 15 -103 86 -608 328 -1283 660 -1840 229 -384 456 -673 790 -1005
287 -284 444 -415 730 -609 124 -83 178 -118 325 -206 11 -7 23 -12 26 -11 3
1 14 -6 23 -13 39 -33 346 -186 506 -253 294 -123 536 -201 850 -274 153 -36
172 -40 234 -49 21 -4 46 -8 55 -10 9 -1 52 -8 96 -15 44 -6 89 -13 101 -15
11 -2 52 -6 90 -10 38 -4 79 -8 92 -10 162 -25 767 -25 967 0 17 2 57 7 90 10
63 7 104 12 170 21 124 19 316 54 375 69 30 8 66 16 80 19 35 6 170 42 270 72
900 270 1704 780 2339 1485 481 533 844 1162 1066 1849 42 131 125 440 139
515 2 17 14 82 25 145 12 63 24 135 27 160 3 25 7 52 9 60 2 8 6 47 10 85 4
39 9 78 11 89 25 140 25 907 -1 1044 -1 9 -6 44 -9 77 -13 113 -17 150 -21
165 -2 8 -7 35 -10 60 -3 25 -20 112 -36 194 -173 853 -559 1642 -1131 2312
-101 119 -365 388 -488 498 -396 354 -930 690 -1415 890 -77 31 -149 61 -160
67 -19 8 -372 126 -405 135 -186 48 -380 94 -417 99 -25 3 -49 8 -52 10 -3 1
-24 6 -46 9 -22 3 -51 8 -65 11 -14 2 -43 7 -65 10 -22 3 -51 8 -65 10 -28 5
-86 11 -175 20 -33 3 -76 8 -95 10 -72 9 -535 25 -543 19z m418 -188 c55 -3
116 -8 135 -10 19 -2 65 -7 102 -11 37 -3 77 -8 90 -10 13 -2 73 -11 133 -20
61 -9 130 -21 155 -26 25 -6 59 -13 75 -16 17 -2 66 -13 110 -24 44 -10 89
-21 100 -24 11 -2 38 -9 60 -15 22 -6 51 -13 64 -16 60 -13 419 -138 546 -190
280 -116 620 -298 869 -466 99 -67 327 -236 391 -289 189 -161 440 -404 555
-538 30 -35 60 -69 65 -75 26 -28 177 -218 226 -286 366 -498 674 -1153 804
-1708 39 -164 67 -299 79 -377 9 -58 28 -180 32 -205 2 -14 6 -54 10 -90 3
-36 7 -76 9 -90 22 -147 23 -674 0 -885 -9 -85 -17 -161 -20 -180 -1 -11 -5
-45 -9 -75 -12 -94 -57 -335 -76 -410 -5 -19 -11 -47 -14 -61 -7 -42 -105
-380 -125 -434 -11 -27 -36 -95 -56 -150 -21 -55 -46 -118 -55 -140 -10 -22
-30 -68 -44 -103 -65 -155 -204 -420 -313 -597 -365 -590 -860 -1109 -1428
-1497 -375 -255 -833 -480 -1260 -618 -71 -23 -137 -44 -145 -46 -8 -2 -76
-19 -150 -39 -158 -41 -369 -84 -490 -100 -25 -3 -56 -8 -70 -10 -23 -4 -46
-7 -160 -20 -245 -26 -877 -27 -1016 -1 -11 2 -46 7 -79 10 -33 4 -76 10 -95
12 -968 140 -1822 530 -2575 1178 -71 61 -375 362 -431 426 -484 560 -805
1119 -1018 1778 -62 191 -142 511 -161 649 -3 21 -8 49 -11 63 -11 61 -27 177
-39 288 -13 125 -15 154 -21 272 -15 294 0 630 41 930 8 55 45 271 49 285 3 9
15 71 21 105 2 8 11 44 20 80 9 36 19 73 21 83 2 10 6 27 9 37 3 10 7 27 9 37
14 69 152 471 196 568 5 11 15 36 23 55 300 713 803 1382 1422 1891 353 290
786 551 1205 726 213 89 468 178 606 212 21 5 64 16 94 24 53 15 229 54 280
63 14 3 61 11 105 19 44 8 103 17 130 20 28 3 59 8 70 10 51 10 194 23 355 31
69 4 126 7 127 8 5 4 373 -2 468 -8z"/>
<path d="M5119 9416 c-2 -2 -53 -7 -114 -11 -60 -4 -112 -8 -115 -10 -3 -2
-33 -6 -67 -10 -80 -9 -96 -11 -163 -24 -30 -6 -66 -12 -80 -15 -222 -40 -532
-133 -758 -226 -1142 -470 -1997 -1408 -2365 -2595 -27 -85 -82 -307 -92 -365
-4 -29 -11 -60 -20 -100 -1 -3 -5 -30 -9 -60 -5 -30 -10 -63 -12 -74 -2 -10
-6 -44 -9 -75 -4 -31 -8 -67 -11 -81 -24 -147 -23 -706 1 -852 2 -13 6 -45 9
-73 6 -62 13 -104 31 -210 93 -548 316 -1098 638 -1578 42 -63 192 -263 242
-322 294 -350 655 -659 1037 -889 121 -72 344 -188 453 -236 28 -12 64 -27 80
-35 246 -107 620 -212 929 -260 21 -4 46 -8 55 -10 9 -1 48 -6 86 -10 39 -4
80 -8 92 -10 180 -28 660 -23 903 10 25 3 61 8 80 10 19 3 46 7 60 10 13 2 42
7 65 11 22 3 82 14 132 25 960 200 1812 740 2414 1528 424 555 721 1281 795
1943 3 29 7 64 10 78 25 158 25 715 -1 890 -2 14 -7 50 -10 80 -8 69 -13 102
-25 165 -5 28 -12 66 -15 85 -24 145 -89 388 -152 565 -383 1087 -1180 1941
-2243 2407 -210 92 -631 223 -810 252 -19 3 -58 10 -87 15 -29 6 -74 13 -100
16 -26 3 -57 8 -68 10 -11 2 -49 7 -85 10 -36 4 -81 9 -100 12 -43 6 -595 15
-601 9z m578 -280 c12 -2 53 -8 90 -11 249 -24 543 -91 818 -186 545 -188
1017 -482 1426 -889 86 -85 173 -175 195 -200 57 -67 117 -140 133 -164 8 -12
17 -23 21 -26 34 -29 233 -332 312 -475 212 -382 375 -860 433 -1270 3 -22 7
-53 10 -70 20 -132 30 -294 30 -500 0 -254 -16 -452 -49 -625 -3 -14 -8 -43
-11 -65 -3 -22 -10 -56 -15 -75 -5 -19 -11 -51 -14 -70 -16 -102 -103 -384
-176 -568 -409 -1038 -1274 -1856 -2336 -2211 -184 -61 -445 -125 -594 -146
-25 -3 -56 -8 -70 -10 -71 -11 -179 -22 -286 -30 -66 -5 -459 -5 -509 0 -22 2
-69 6 -105 9 -90 8 -140 14 -250 32 -97 15 -318 62 -330 69 -4 2 -20 6 -36 9
-16 3 -87 24 -159 46 -732 229 -1382 678 -1857 1285 -43 55 -83 105 -87 111
-76 95 -262 405 -340 567 -109 224 -229 548 -266 717 -2 8 -12 56 -24 105 -17
77 -36 176 -55 286 -2 15 -7 53 -11 85 -4 33 -9 70 -11 84 -22 135 -21 676 1
785 2 11 7 47 10 80 3 33 10 85 15 115 5 30 12 71 15 90 10 58 55 262 60 269
2 4 6 19 9 33 4 25 33 126 44 158 3 8 6 17 7 20 9 37 69 201 107 295 351 854
1026 1569 1865 1975 164 80 469 199 548 216 6 1 42 11 80 22 82 24 225 59 275
67 19 3 58 10 85 15 71 14 95 17 161 25 33 4 68 9 79 11 11 2 63 7 115 10 52
4 97 8 99 10 5 5 524 -4 548 -10z"/>
<path d="M5348 8215 c-2 -2 -64 -6 -138 -9 -74 -4 -146 -8 -160 -10 -14 -3
-47 -7 -74 -11 -67 -8 -211 -34 -261 -46 -22 -5 -47 -11 -55 -13 -417 -102
-871 -341 -1192 -628 -207 -184 -421 -436 -535 -626 -83 -139 -96 -161 -152
-277 -155 -320 -247 -649 -278 -1001 -14 -155 -5 -596 12 -624 2 -3 6 -30 10
-60 45 -368 231 -841 464 -1180 140 -205 378 -466 546 -601 476 -383 1039
-609 1610 -646 173 -12 465 -6 565 11 14 2 46 7 71 10 25 4 57 9 70 11 502 94
913 279 1300 586 127 100 347 320 450 449 151 189 291 418 378 620 23 52 46
104 51 115 10 21 99 288 105 315 23 99 44 202 49 230 3 19 8 46 10 60 23 128
31 235 31 445 0 205 -5 286 -26 430 -101 689 -463 1333 -999 1779 -240 200
-528 370 -795 471 -55 20 -116 44 -135 51 -34 13 -207 60 -305 82 -67 15 -163
31 -287 47 -18 2 -85 7 -148 10 -63 4 -130 8 -147 9 -18 2 -34 2 -35 1z m152
-359 c74 -3 151 -8 170 -11 357 -56 563 -120 835 -259 552 -283 981 -757 1203
-1327 36 -93 78 -218 87 -259 2 -8 10 -42 18 -75 8 -33 19 -80 23 -105 4 -25
8 -47 9 -50 1 -3 5 -32 9 -65 4 -32 10 -68 13 -80 9 -38 11 -450 3 -525 -13
-104 -20 -162 -25 -185 -3 -11 -7 -31 -9 -45 -2 -14 -11 -56 -20 -95 -187
-807 -765 -1476 -1541 -1780 -65 -26 -126 -49 -135 -51 -343 -94 -498 -118
-785 -118 -321 0 -582 48 -895 164 -100 37 -329 149 -419 206 -68 42 -295 209
-328 240 -11 10 -53 51 -94 89 -390 370 -646 853 -743 1400 -6 31 -11 75 -25
205 -9 84 -6 423 4 485 3 22 13 83 21 135 24 159 99 430 143 525 5 11 17 38
26 60 64 151 180 354 283 495 170 232 411 462 642 612 132 86 138 89 255 149
208 105 417 177 650 223 164 32 184 34 330 42 66 4 121 8 123 9 2 2 11 1 20
-1 9 -1 78 -5 152 -8z"/>
<path d="M5180 7179 c-174 -21 -247 -36 -369 -74 -410 -130 -783 -418 -1009
-778 -133 -212 -244 -508 -267 -712 -3 -28 -8 -71 -11 -95 -7 -63 -7 -285 0
-345 3 -27 8 -70 11 -95 3 -25 7 -56 10 -70 3 -14 7 -36 10 -49 13 -71 50
-193 82 -274 193 -492 562 -865 1051 -1061 118 -48 312 -99 422 -113 131 -15
550 -7 581 12 3 2 21 7 40 10 181 32 387 113 579 228 501 300 837 834 887
1407 12 146 6 374 -13 464 -3 12 -7 39 -10 61 -12 77 -73 272 -119 377 -203
465 -585 826 -1057 1002 -107 40 -263 81 -348 91 -30 4 -64 9 -75 12 -38 8
-330 9 -395 2z m342 -1463 c213 -101 306 -343 208 -542 -75 -153 -230 -247
-391 -238 -80 5 -144 28 -211 78 -166 121 -222 332 -133 505 48 94 143 178
245 214 71 26 209 18 282 -17z"/>
</g>
</svg>
